# AST/ASF file generated using VICON BodyLanguage
# -----------------------------------------------
:version 1.10
:name VICON
:units
  mass 1.0
  length 0.45
  angle deg
:documentation
   .ast/.asf automatically generated from VICON data using
   VICON BodyBuilder and BodyLanguage model FoxedUp or BRILLIANT.MOD
:root
   order TX TY TZ RX RY RZ
   axis XYZ
   position 0 0 0  
   orientation 0 0 0 
:bonedata
  begin
     id 1 
     name lhipjoint
     direction 0.610259 -0.730986 0.305356 
     length 2.50941 
     axis 0 0 0  XYZ
  end
  begin
     id 2 
     name lfemur
     direction 0.34202 -0.939693 0  
     length 7.48822  
     axis 0 0 20  XYZ
    dof rx ry rz
    limits (-160.0 20.0)
           (-70.0 70.0)
           (-60.0 70.0)
  end
  begin
     id 3 
     name ltibia
     direction 0.34202 -0.939693 0   
     length 7.60141   
     axis 0 0 20   XYZ
    dof rx
    limits (-10.0 170.0)
  end
  begin
     id 4 
     name lfoot
     direction 0.0673488 -0.185039 0.980421   
     length 2.04049   
     axis -90 7.62852e-016 20   XYZ
    dof rx rz
    limits (-45.0 90.0)
           (-70.0 20.0)
  end
  begin
     id 5 
     name ltoes
     direction 1.5356e-011 -4.21729e-011 1   
     length 1.02897   
     axis -90 7.62852e-016 20   XYZ
    dof rx
    limits (-90.0 20.0)
  end
  begin
     id 6 
     name rhipjoint
     direction -0.57612 -0.754205 0.315056   
     length 2.43216  
     axis 0 0 0  XYZ 
  end
  begin
     id 7 
     name rfemur
     direction -0.34202 -0.939693 0   
     length 7.42799   
     axis 0 0 -20   XYZ
    dof rx ry rz
    limits (-160.0 20.0)
           (-70.0 70.0)
           (-70.0 60.0)
  end
  begin
     id 8 
     name rtibia
     direction -0.34202 -0.939693 0   
     length 7.69484   
     axis 0 0 -20   XYZ
    dof rx
    limits (-10.0 170.0)
 end
 begin
     id 9 
     name rfoot
     direction -0.111837 -0.30727 0.945028   
     length 2.15769  
     axis -90 -7.62852e-016 -20   XYZ
    dof rx rz
    limits (-45.0 90.0)
           (-20.0 70.0)
  end
  begin
     id 10 
     name rtoes
     direction -1.53539e-011 -4.21878e-011 1   
     length 1.07391   
     axis -90 -7.62852e-016 -20   XYZ
    dof rx
    limits (-90.0 20.0)
  end
  begin
     id 11 
     name lowerback
     direction 0.00552624 0.990109 -0.140195   
     length 2.12403   
     axis 0 0 0   XYZ
    dof rx ry rz
    limits (-20.0 45.0)
           (-30.0 30.0)
           (-30.0 30.0)
  end
  begin
     id 12 
     name upperback
     direction 0.00361898 0.999976 -0.00584723   
     length 2.13232   
     axis 0 0 0   XYZ
    dof rx ry rz
    limits (-20.0 45.0)
           (-30.0 30.0)
           (-30.0 30.0)
  end
  begin
     id 13 
     name thorax
     direction -0.000331275 0.998253 0.0590847   
     length 2.17688   
     axis 0 0 0   XYZ
    dof rx ry rz
    limits (-20.0 45.0)
           (-30.0 30.0)
           (-30.0 30.0)
  end
  begin
     id 14 
     name lowerneck
     direction -0.0561561 0.979832 0.19177   
     length 1.64159   
     axis 0 0 0   XYZ
    dof rx ry rz
    limits (-20.0 45.0)
           (-30.0 30.0)
           (-30.0 30.0)
  end
  begin
     id 15 
     name upperneck
     direction 0.0827153 0.979385 -0.184293   
     length 1.68939   
     axis 0 0 0   XYZ
    dof rx ry rz
    limits (-20.0 45.0)
           (-30.0 30.0)
           (-30.0 30.0)
  end
  begin
     id 16
     name head
     direction 0.0278583 0.995936 -0.0856488  
     length 1.70207  
     axis 0 0 0   XYZ
    dof rx ry rz
    limits (-20.0 45.0)
           (-30.0 30.0)
           (-30.0 30.0)
  end
  begin
     id 17 
     name lclavicle
     direction 0.950993 0.301131 -0.0702275  
     length 3.41652  
     axis 0 0 0   XYZ
    dof ry rz
    limits (-20.0 10.0)
           (0.0 20.0)
  end
  begin
     id 18 
     name lhumerus
     direction 1 -4.48981e-011 -3.9662e-029   
     length 5.32955   
     axis 180 -30 -90   XYZ
    dof rx ry rz
    limits (-60.0 90.0)
           (-90.0 90.0)
           (-90.0 90.0)
  end
  begin
     id 19
     name lradius
     direction 1 -4.48925e-011 -9.0549e-027   
     length 3.69232   
     axis 180 -30 -90   XYZ
    dof rx
    limits (-10.0 170.0)
  end
  begin
     id 20
     name lwrist
     direction 1 -4.49007e-011 -1.49005e-026   
     length 1.84616   
     axis 9.0955e-015 90 90   XYZ
    dof ry
    limits (-180.0 0.0)
 end
  begin
     id 21 
     name lhand
     direction 1 -4.49016e-011 -2.98023e-026   
     length 0.536598   
     axis 1.90115e-014 90 90   XYZ
    dof rx rz
    limits (-90.0 90.0)
           (-45.0 45.0)
  end
  begin
     id 22 
     name lfingers
     direction 1 -4.48924e-011 -5.9578e-026   
     length 0.432619   
     axis 3.80223e-014 90 90   XYZ
    dof rx
    limits (0.0 90.0)
  end
  begin
     id 23
     name lthumb
     direction 0.707107 -6.34947e-011 0.707107   
     length 0.621157   
     axis -90 45 -3.84942e-014   XYZ
    dof rx rz
    limits (-45.0 45.0)
           (-45.0 45.0)
  end
  begin
     id 24 
     name rclavicle
     direction -0.955495 0.276497 -0.102848   
     length 3.36357  
     axis 0 0 0   XYZ 
    dof ry rz
    limits (-10.0 20.0)
           (-20.0 0.0)
  end
  begin
     id 25 
     name rhumerus
     direction -1 -4.48961e-011 3.30983e-027  
     length 5.23431   
     axis 180 30 90   XYZ
    dof rx ry rz
    limits (-90.0 60.0)
           (-90.0 90.0)
           (-90.0 90.0)
  end
  begin
     id 26 
     name rradius
     direction -1 -4.48965e-011 -6.63263e-027   
     length 3.55301   
     axis 180 30 90   XYZ
    dof rx
    limits (-10.0 170.0)
  end
  begin
     id 27 
     name rwrist
     direction -1 -4.48942e-011 -1.48958e-026   
     length 1.77651   
     axis 9.0955e-015 -90 -90   XYZ
    dof ry
    limits (-180.0 0.0)
  end
  begin
     id 28
     name rhand
     direction -1 -4.48977e-011 -2.97966e-026   
     length 0.772522   
     axis 1.90115e-014 -90 -90   XYZ
    dof rx rz
    limits (-90.0 90.0)
           (-45.0 45.0)
  end
  begin
     id 29
     name rfingers
     direction -1 -4.49135e-011 -5.96389e-026   
     length 0.622827   
     axis 3.80223e-014 -90 -90   XYZ
    dof rx
    limits (0.0 90.0)
  end
  begin
     id 30
     name rthumb
     direction -0.707107 -6.34969e-011 0.707107   
     length 0.894259   
     axis -90 -45 3.84942e-014   XYZ
    dof rx rz
    limits (-45.0 45.0)
           (-45.0 45.0)
  end
:hierarchy
  begin
    root lhipjoint rhipjoint lowerback
    lhipjoint lfemur
    lfemur ltibia
    ltibia lfoot
    lfoot ltoes
    rhipjoint rfemur
    rfemur rtibia
    rtibia rfoot
    rfoot rtoes
    lowerback upperback
    upperback thorax
    thorax lowerneck lclavicle rclavicle
    lowerneck upperneck
    upperneck head
    lclavicle lhumerus
    lhumerus lradius
    lradius lwrist
    lwrist lhand lthumb
    lhand lfingers
    rclavicle rhumerus
    rhumerus rradius
    rradius rwrist
    rwrist rhand rthumb
    rhand rfingers
  end

#!OML:ASF F:\VICON\USERDATA\INSTALL\rory3\rory3.ASF
:FULLY-SPECIFIED
:DEGREES
32
root -0.128455 18.159 1.67312 3.46715 -1.84764 0.956301
lowerback 5.95024 -0.696218 -1.8092
upperback -1.28195 -1.03861 0.646341
thorax -4.62271 -0.455879 1.78763
lowerneck -18.1632 -11.2901 -16.3315
upperneck 20.6106 -14.7779 14.0426
head 12.1461 -6.46769 5.36187
rclavicle -5.08143e-015 1.13307e-014
rhumerus -34.1353 -13.895 -80.9715
rradius 29.4376
rwrist 7.87849
rhand -14.0432 10.5543
rfingers 7.12502
rthumb 12.0875 -19.0765
lclavicle -5.08143e-015 1.13307e-014
lhumerus -37.6472 8.92388 81.6355
lradius 35.4249
lwrist -5.06942
lhand -18.8003 22.8834
lfingers 7.12502
lthumb 7.49793 52.7306
rfemur -7.02317 3.34123 22.5175
rtibia 22.2507
rfoot -14.3011 -2.07505
rtoes 1.91991
lfemur -0.111916 -0.355242 -23.0296
ltibia 8.72886
lfoot -6.8916 1.14824
ltoes -9.95397
33
root -0.130885 18.1581 1.67452 3.42122 -1.8217 0.929843
lowerback 5.97674 -0.694179 -1.77373
upperback -1.25229 -1.03299 0.656155
thorax -4.60747 -0.45434 1.77744
lowerneck -18.2623 -11.3041 -16.3021
upperneck 20.6754 -14.7879 14.0013
head 12.1854 -6.4689 5.33716
rclavicle -1.83876e-015 -1.07344e-014
rhumerus -34.1164 -13.975 -80.9387
rradius 29.4123
rwrist 7.94766
rhand -14.0031 10.4705
rfingers 7.12502
rthumb 12.1261 -19.1581
lclavicle -1.83876e-015 -1.07344e-014
lhumerus -37.6313 8.92452 81.635
lradius 35.3705
lwrist -5.04948
lhand -18.8998 22.9263
lfingers 7.12502
lthumb 7.40187 52.7768
rfemur -6.96203 3.33966 22.5583
rtibia 22.254
rfoot -14.3245 -2.08406
rtoes 2.02824
lfemur -0.0582339 -0.376898 -22.9965
ltibia 8.73746
lfoot -6.93033 1.1397
ltoes -9.73068
34
root -0.133268 18.1581 1.67175 3.39732 -1.78696 0.904521
lowerback 6.06086 -0.684849 -1.73212
upperback -1.24639 -1.01911 0.646657
thorax -4.65039 -0.448234 1.74428
lowerneck -18.3774 -11.3045 -16.1596
upperneck 20.7452 -14.7907 13.8913
head 12.2115 -6.4647 5.26882
rclavicle 1.63997e-014 -3.18055e-015
rhumerus -34.0987 -14.2035 -80.8964
rradius 29.3002
rwrist 8.10354
rhand -14.0316 10.6184
rfingers 7.12502
rthumb 12.0986 -19.0118
lclavicle 1.63997e-014 -3.18055e-015
lhumerus -37.6106 8.82872 81.6266
lradius 35.309
lwrist -4.94811
lhand -18.9924 22.6401
lfingers 7.12502
lthumb 7.31251 52.4937
rfemur -6.94714 3.24505 22.5895
rtibia 22.2788
rfoot -14.3535 -2.01113
rtoes 2.23377
lfemur -0.0279254 -0.408641 -22.966
ltibia 8.72639
lfoot -6.8955 1.13385
ltoes -9.91296
35
root -0.13688 18.1575 1.67009 3.39457 -1.77949 0.950629
lowerback 6.11737 -0.684684 -1.80177
upperback -1.2535 -1.02525 0.648508
thorax -4.68841 -0.448793 1.78705
lowerneck -18.4469 -11.302 -16.0877
upperneck 20.7702 -14.7657 13.7707
head 12.2117 -6.45743 5.21387
rclavicle -1.38652e-014 -7.7526e-015
rhumerus -34.0821 -14.287 -80.8569
rradius 29.2068
rwrist 8.21006
rhand -14.2058 10.8825
rfingers 7.12502
rthumb 11.9306 -18.7576
lclavicle -1.38652e-014 -7.7526e-015
lhumerus -37.6655 8.87596 81.6046
lradius 35.3059
lwrist -4.90647
lhand -19.1533 22.6013
lfingers 7.12502
lthumb 7.15721 52.4603
rfemur -6.96269 3.22437 22.5462
rtibia 22.3172
rfoot -14.3816 -1.99017
rtoes 2.34707
lfemur -0.0066243 -0.418394 -23.0025
ltibia 8.68152
lfoot -6.84575 1.10731
ltoes -9.95143
36
root -0.141144 18.1558 1.67035 3.3787 -1.76295 1.00237
lowerback 6.14002 -0.702094 -1.8889
upperback -1.24688 -1.05526 0.658096
thorax -4.69144 -0.461123 1.84928
lowerneck -18.5239 -11.2797 -16.047
upperneck 20.817 -14.7142 13.6837
head 12.2232 -6.43676 5.18299
rclavicle 8.27441e-015 -1.11319e-014
rhumerus -34.0626 -14.1987 -80.8744
rradius 29.1814
rwrist 8.19652
rhand -14.2889 11.0134
rfingers 7.12502
rthumb 11.8505 -18.6313
lclavicle 8.27441e-015 -1.11319e-014
lhumerus -37.7749 9.08649 81.535
lradius 35.3438
lwrist -5.00707
lhand -19.179 22.9248
lfingers 7.12502
lthumb 7.13236 52.7847
rfemur -6.96137 3.25579 22.511
rtibia 22.358
rfoot -14.4 -2.03717
rtoes 2.13814
lfemur 0.0368595 -0.436732 -23.0442
ltibia 8.61465
lfoot -6.81666 1.11286
ltoes -10.1149
37
root -0.14424 18.1564 1.67339 3.38693 -1.72677 1.04422
lowerback 6.03645 -0.719162 -1.93978
upperback -1.18187 -1.07945 0.662295
thorax -4.56301 -0.473914 1.88189
lowerneck -18.6193 -11.2709 -16.0659
upperneck 20.8136 -14.6926 13.73
head 12.2431 -6.4191 5.20529
rclavicle 1.97542e-015 -1.76918e-014
rhumerus -33.9703 -14.1636 -80.8814
rradius 29.1564
rwrist 8.24039
rhand -14.2888 10.7676
rfingers 7.12502
rthumb 11.8506 -18.877
lclavicle 1.97542e-015 -1.76918e-014
lhumerus -37.7159 9.27123 81.4869
lradius 35.2473
lwrist -5.20201
lhand -19.0151 23.4045
lfingers 7.12502
lthumb 7.29057 53.2589
rfemur -6.98803 3.14663 22.4727
rtibia 22.3982
rfoot -14.4028 -1.98275
rtoes 2.09379
lfemur 0.0563323 -0.475359 -23.076
ltibia 8.55701
lfoot -6.80094 1.10079
ltoes -10.177
38
root -0.146443 18.1569 1.67448 3.39459 -1.67414 1.08413
lowerback 5.99736 -0.741129 -1.9602
upperback -1.17496 -1.11002 0.651576
thorax -4.53212 -0.489148 1.88438
lowerneck -18.5402 -11.2464 -16.1036
upperneck 20.7507 -14.6675 13.7919
head 12.2085 -6.40853 5.242
rclavicle -3.98812e-015 1.45113e-014
rhumerus -34.0141 -14.2101 -80.8473
rradius 29.1741
rwrist 8.37064
rhand -14.2684 10.3987
rfingers 7.12502
rthumb 11.8703 -19.2449
lclavicle -3.98812e-015 1.45113e-014
lhumerus -37.7242 9.25902 81.4658
lradius 35.1378
lwrist -5.20965
lhand -19.0789 23.8333
lfingers 7.12502
lthumb 7.22894 53.6899
rfemur -7.01519 3.05412 22.4285
rtibia 22.4445
rfoot -14.4407 -1.91224
rtoes 2.18883
lfemur 0.078707 -0.530284 -23.1084
ltibia 8.48445
lfoot -6.77994 1.1021
ltoes -10.3216
39
root -0.150592 18.1562 1.6733 3.37879 -1.61146 1.10797
lowerback 6.03875 -0.752477 -2.00318
upperback -1.19193 -1.12917 0.656537
thorax -4.57148 -0.496742 1.91655
lowerneck -18.5194 -11.2546 -16.1115
upperneck 20.789 -14.6809 13.7749
head 12.2206 -6.41758 5.23544
rclavicle -2.26615e-014 8.34896e-015
rhumerus -34.0968 -14.2304 -80.8115
rradius 29.2013
rwrist 8.36201
rhand -14.2558 10.3667
rfingers 7.12502
rthumb 11.8825 -19.2761
lclavicle -2.26615e-014 8.34896e-015
lhumerus -37.7944 9.22912 81.4481
lradius 35.0946
lwrist -5.18213
lhand -19.1485 23.7982
lfingers 7.12502
lthumb 7.16179 53.657
rfemur -7.02164 3.03905 22.4178
rtibia 22.5064
rfoot -14.4666 -1.92931
rtoes 2.62697
lfemur 0.169959 -0.59217 -23.1005
ltibia 8.32624
lfoot -6.70144 1.05512
ltoes -10.0776
40
root -0.153599 18.1548 1.67387 3.39317 -1.57196 1.19475
lowerback 5.99499 -0.755478 -2.0823
upperback -1.17608 -1.13908 0.638206
thorax -4.52869 -0.500526 1.94191
lowerneck -18.5887 -11.2653 -16.1363
upperneck 20.8407 -14.6901 13.7934
head 12.2599 -6.41781 5.2436
rclavicle -1.80894e-014 -5.96354e-016
rhumerus -34.1507 -14.1466 -80.8166
rradius 29.3312
rwrist 8.32369
rhand -14.2452 9.89117
rfingers 7.12502
rthumb 11.8927 -19.7511
lclavicle -1.80894e-014 -5.96354e-016
lhumerus -37.8082 9.28374 81.4059
lradius 35.0405
lwrist -5.22715
lhand -19.1334 23.4599
lfingers 7.12502
lthumb 7.17637 53.3182
rfemur -7.06407 2.93924 22.3288
rtibia 22.5691
rfoot -14.5097 -1.917
rtoes 2.54786
lfemur 0.23932 -0.636678 -23.1831
ltibia 8.18547
lfoot -6.67735 1.02462
ltoes -10.0459
41
root -0.156323 18.1556 1.67547 3.4178 -1.56385 1.30546
lowerback 5.94779 -0.767033 -2.18283
upperback -1.19833 -1.16252 0.612238
thorax -4.52271 -0.509721 1.9731
lowerneck -18.545 -11.2306 -16.1568
upperneck 20.8583 -14.6503 13.8183
head 12.2555 -6.40113 5.26715
rclavicle -1.84249e-014 1.78906e-015
rhumerus -34.2734 -13.9823 -80.8465
rradius 29.4636
rwrist 8.27326
rhand -14.3357 9.24936
rfingers 7.12502
rthumb 11.8054 -20.3979
lclavicle -1.84249e-014 1.78906e-015
lhumerus -37.8529 9.40905 81.3321
lradius 34.8865
lwrist -5.32414
lhand -19.2977 22.8983
lfingers 7.12502
lthumb 7.01782 52.762
rfemur -7.09818 2.94597 22.2021
rtibia 22.6087
rfoot -14.5595 -1.90125
rtoes 2.68603
lfemur 0.235334 -0.652689 -23.2958
ltibia 8.15885
lfoot -6.6759 1.00997
ltoes -10.0284
42
root -0.161297 18.1554 1.67533 3.43239 -1.57499 1.35439
lowerback 5.94878 -0.774745 -2.25947
upperback -1.23509 -1.17945 0.602699
thorax -4.55953 -0.515311 2.0084
lowerneck -18.4658 -11.1872 -16.1185
upperneck 20.8606 -14.6036 13.7883
head 12.2262 -6.38453 5.26212
rclavicle -4.22417e-016 -1.51076e-014
rhumerus -34.3827 -13.8422 -80.9245
rradius 29.5645
rwrist 8.17423
rhand -14.5044 9.35244
rfingers 7.12502
rthumb 11.6427 -20.3041
lclavicle -4.22417e-016 -1.51076e-014
lhumerus -37.916 9.46039 81.2639
lradius 34.7477
lwrist -5.3253
lhand -19.4586 22.4283
lfingers 7.12502
lthumb 6.86246 52.2971
rfemur -7.10453 3.01921 22.163
rtibia 22.63
rfoot -14.5918 -1.93943
rtoes 2.57966
lfemur 0.210627 -0.645372 -23.3347
ltibia 8.15569
lfoot -6.65229 1.02374
ltoes -9.93017
43
root -0.165324 18.154 1.67565 3.44235 -1.59251 1.23533
lowerback 5.96273 -0.769719 -2.14489
upperback -1.26808 -1.16365 0.623273
thorax -4.60425 -0.509349 1.96453
lowerneck -18.3789 -11.1586 -16.0651
upperneck 20.8568 -14.5773 13.7378
head 12.1934 -6.37839 5.2424
rclavicle -2.9445e-015 -2.127e-014
rhumerus -34.4563 -13.6744 -81.0354
rradius 29.6557
rwrist 7.87147
rhand -14.5408 9.88794
rfingers 7.12502
rthumb 11.6076 -19.7706
lclavicle -2.9445e-015 -2.127e-014
lhumerus -38.0151 9.41684 81.1997
lradius 34.7007
lwrist -5.2375
lhand -19.2349 22.765
lfingers 7.12502
lthumb 7.07842 52.6266
rfemur -7.10091 3.01025 22.3192
rtibia 22.6272
rfoot -14.6047 -1.97779
rtoes 2.2454
lfemur 0.190094 -0.620965 -23.1939
ltibia 8.16862
lfoot -6.64068 1.04839
ltoes -10.1631
